<svg xmlns="http://www.w3.org/2000/svg" viewBox="0 0 32 32" shape-rendering="crispEdges">
<rect x="10" y="24" width="1" height="1" fill="#0a0b10"/>
<rect x="11" y="24" width="5" height="1" fill="#bcc6d6"/>
<rect x="16" y="24" width="1" height="1" fill="#0a0b10"/>
<rect x="17" y="24" width="5" height="1" fill="#bcc6d6"/>
<rect x="22" y="24" width="1" height="1" fill="#0a0b10"/>
<rect x="10" y="25" width="1" height="1" fill="#0a0b10"/>
<rect x="11" y="25" width="5" height="1" fill="#6f7b90"/>
<rect x="16" y="25" width="1" height="1" fill="#0a0b10"/>
<rect x="17" y="25" width="5" height="1" fill="#6f7b90"/>
<rect x="22" y="25" width="1" height="1" fill="#0a0b10"/>
<rect x="10" y="26" width="1" height="1" fill="#0a0b10"/>
<rect x="11" y="26" width="5" height="1" fill="#bcc6d6"/>
<rect x="16" y="26" width="1" height="1" fill="#0a0b10"/>
<rect x="17" y="26" width="5" height="1" fill="#bcc6d6"/>
<rect x="22" y="26" width="1" height="1" fill="#0a0b10"/>
<rect x="10" y="27" width="1" height="1" fill="#0a0b10"/>
<rect x="11" y="27" width="5" height="1" fill="#bcc6d6"/>
<rect x="16" y="27" width="1" height="1" fill="#0a0b10"/>
<rect x="17" y="27" width="5" height="1" fill="#bcc6d6"/>
<rect x="22" y="27" width="1" height="1" fill="#0a0b10"/>
</svg>
