<svg xmlns="http://www.w3.org/2000/svg" viewBox="0 0 32 32" shape-rendering="crispEdges">
<rect x="8" y="14" width="1" height="1" fill="#0a0b10"/>
<rect x="9" y="14" width="14" height="1" fill="#a89968"/>
<rect x="23" y="14" width="1" height="1" fill="#0a0b10"/>
<rect x="8" y="15" width="1" height="1" fill="#0a0b10"/>
<rect x="9" y="15" width="1" height="1" fill="#a89968"/>
<rect x="10" y="15" width="12" height="1" fill="#7d7048"/>
<rect x="22" y="15" width="1" height="1" fill="#a89968"/>
<rect x="23" y="15" width="1" height="1" fill="#0a0b10"/>
<rect x="8" y="16" width="1" height="1" fill="#0a0b10"/>
<rect x="9" y="16" width="14" height="1" fill="#a89968"/>
<rect x="23" y="16" width="1" height="1" fill="#0a0b10"/>
<rect x="8" y="17" width="1" height="1" fill="#0a0b10"/>
<rect x="9" y="17" width="14" height="1" fill="#a89968"/>
<rect x="23" y="17" width="1" height="1" fill="#0a0b10"/>
<rect x="8" y="18" width="1" height="1" fill="#0a0b10"/>
<rect x="9" y="18" width="14" height="1" fill="#a89968"/>
<rect x="23" y="18" width="1" height="1" fill="#0a0b10"/>
<rect x="8" y="19" width="1" height="1" fill="#0a0b10"/>
<rect x="9" y="19" width="14" height="1" fill="#a89968"/>
<rect x="23" y="19" width="1" height="1" fill="#0a0b10"/>
<rect x="8" y="20" width="1" height="1" fill="#0a0b10"/>
<rect x="9" y="20" width="14" height="1" fill="#a89968"/>
<rect x="23" y="20" width="1" height="1" fill="#0a0b10"/>
<rect x="8" y="21" width="1" height="1" fill="#0a0b10"/>
<rect x="9" y="21" width="14" height="1" fill="#a89968"/>
<rect x="23" y="21" width="1" height="1" fill="#0a0b10"/>
<rect x="8" y="22" width="1" height="1" fill="#0a0b10"/>
<rect x="9" y="22" width="14" height="1" fill="#a89968"/>
<rect x="23" y="22" width="1" height="1" fill="#0a0b10"/>
</svg>
