<svg xmlns="http://www.w3.org/2000/svg" viewBox="0 0 16 16" shape-rendering="crispEdges">
<rect x="0" y="0" width="16" height="1" fill="#4a5c8a"/>
<rect x="0" y="1" width="16" height="1" fill="#4a5c8a"/>
<rect x="0" y="2" width="16" height="1" fill="#4a5c8a"/>
<rect x="0" y="3" width="4" height="1" fill="#4a5c8a"/>
<rect x="4" y="3" width="2" height="1" fill="#d9aa3b"/>
<rect x="6" y="3" width="10" height="1" fill="#4a5c8a"/>
<rect x="0" y="4" width="5" height="1" fill="#4a5c8a"/>
<rect x="5" y="4" width="2" height="1" fill="#d9aa3b"/>
<rect x="7" y="4" width="9" height="1" fill="#4a5c8a"/>
<rect x="0" y="5" width="6" height="1" fill="#4a5c8a"/>
<rect x="6" y="5" width="2" height="1" fill="#d9aa3b"/>
<rect x="8" y="5" width="8" height="1" fill="#4a5c8a"/>
<rect x="0" y="6" width="7" height="1" fill="#4a5c8a"/>
<rect x="7" y="6" width="2" height="1" fill="#6f7b90"/>
<rect x="9" y="6" width="7" height="1" fill="#4a5c8a"/>
<rect x="0" y="7" width="7" height="1" fill="#4a5c8a"/>
<rect x="7" y="7" width="2" height="1" fill="#6f7b90"/>
<rect x="9" y="7" width="7" height="1" fill="#4a5c8a"/>
<rect x="0" y="8" width="6" height="1" fill="#4a5c8a"/>
<rect x="6" y="8" width="4" height="1" fill="#333c4d"/>
<rect x="10" y="8" width="6" height="1" fill="#4a5c8a"/>
<rect x="0" y="9" width="5" height="1" fill="#4a5c8a"/>
<rect x="5" y="9" width="6" height="1" fill="#333c4d"/>
<rect x="11" y="9" width="5" height="1" fill="#4a5c8a"/>
<rect x="0" y="10" width="5" height="1" fill="#4a5c8a"/>
<rect x="5" y="10" width="6" height="1" fill="#0a0b10"/>
<rect x="11" y="10" width="5" height="1" fill="#4a5c8a"/>
<rect x="0" y="11" width="16" height="1" fill="#4a5c8a"/>
<rect x="0" y="12" width="16" height="1" fill="#4a5c8a"/>
<rect x="0" y="13" width="16" height="1" fill="#4a5c8a"/>
<rect x="0" y="14" width="16" height="1" fill="#4a5c8a"/>
<rect x="0" y="15" width="16" height="1" fill="#4a5c8a"/>
</svg>
