<svg xmlns="http://www.w3.org/2000/svg" viewBox="0 0 32 32" shape-rendering="crispEdges">
<rect x="13" y="1" width="6" height="1" fill="#0a0b10"/>
<rect x="12" y="2" width="1" height="1" fill="#0a0b10"/>
<rect x="13" y="2" width="6" height="1" fill="#f07a3c"/>
<rect x="19" y="2" width="1" height="1" fill="#0a0b10"/>
<rect x="12" y="3" width="1" height="1" fill="#0a0b10"/>
<rect x="13" y="3" width="2" height="1" fill="#f07a3c"/>
<rect x="15" y="3" width="2" height="1" fill="#ffd25e"/>
<rect x="17" y="3" width="2" height="1" fill="#f07a3c"/>
<rect x="19" y="3" width="1" height="1" fill="#0a0b10"/>
<rect x="12" y="4" width="1" height="1" fill="#0a0b10"/>
<rect x="13" y="4" width="1" height="1" fill="#f07a3c"/>
<rect x="14" y="4" width="4" height="1" fill="#ffd25e"/>
<rect x="18" y="4" width="1" height="1" fill="#f07a3c"/>
<rect x="19" y="4" width="1" height="1" fill="#0a0b10"/>
<rect x="12" y="5" width="1" height="1" fill="#0a0b10"/>
<rect x="13" y="5" width="1" height="1" fill="#f07a3c"/>
<rect x="14" y="5" width="4" height="1" fill="#ffd25e"/>
<rect x="18" y="5" width="1" height="1" fill="#f07a3c"/>
<rect x="19" y="5" width="1" height="1" fill="#0a0b10"/>
<rect x="12" y="6" width="1" height="1" fill="#0a0b10"/>
<rect x="13" y="6" width="2" height="1" fill="#f07a3c"/>
<rect x="15" y="6" width="2" height="1" fill="#ffd25e"/>
<rect x="17" y="6" width="2" height="1" fill="#f07a3c"/>
<rect x="19" y="6" width="1" height="1" fill="#0a0b10"/>
<rect x="13" y="7" width="1" height="1" fill="#0a0b10"/>
<rect x="14" y="7" width="4" height="1" fill="#f07a3c"/>
<rect x="18" y="7" width="1" height="1" fill="#0a0b10"/>
<rect x="13" y="8" width="1" height="1" fill="#0a0b10"/>
<rect x="14" y="8" width="4" height="1" fill="#c23a2c"/>
<rect x="18" y="8" width="1" height="1" fill="#0a0b10"/>
<rect x="13" y="9" width="6" height="1" fill="#0a0b10"/>
<rect x="13" y="10" width="1" height="1" fill="#0a0b10"/>
<rect x="14" y="10" width="4" height="1" fill="#6f7b90"/>
<rect x="18" y="10" width="1" height="1" fill="#0a0b10"/>
<rect x="12" y="11" width="1" height="1" fill="#0a0b10"/>
<rect x="13" y="11" width="6" height="1" fill="#6f7b90"/>
<rect x="19" y="11" width="1" height="1" fill="#0a0b10"/>
<rect x="12" y="12" width="1" height="1" fill="#0a0b10"/>
<rect x="13" y="12" width="6" height="1" fill="#333c4d"/>
<rect x="19" y="12" width="1" height="1" fill="#0a0b10"/>
<rect x="13" y="13" width="6" height="1" fill="#0a0b10"/>
<rect x="14" y="14" width="1" height="1" fill="#0a0b10"/>
<rect x="15" y="14" width="2" height="1" fill="#6f7b90"/>
<rect x="17" y="14" width="1" height="1" fill="#0a0b10"/>
<rect x="14" y="15" width="1" height="1" fill="#0a0b10"/>
<rect x="15" y="15" width="2" height="1" fill="#6f7b90"/>
<rect x="17" y="15" width="1" height="1" fill="#0a0b10"/>
<rect x="13" y="16" width="1" height="1" fill="#0a0b10"/>
<rect x="14" y="16" width="4" height="1" fill="#6f7b90"/>
<rect x="18" y="16" width="1" height="1" fill="#0a0b10"/>
<rect x="13" y="17" width="6" height="1" fill="#0a0b10"/>
</svg>
